<?xml version="1.0" encoding="utf-8"?>
<!-- Generator: Adobe Illustrator 16.0.0, SVG Export Plug-In . SVG Version: 6.00 Build 0)  -->
<!DOCTYPE svg PUBLIC "-//W3C//DTD SVG 1.1//EN" "http://www.w3.org/Graphics/SVG/1.1/DTD/svg11.dtd">
<svg version="1.1" id="Layer_1" xmlns="http://www.w3.org/2000/svg" xmlns:xlink="http://www.w3.org/1999/xlink" x="0px" y="0px"
	 width="841.89px" height="595.28px" viewBox="0 0 841.89 595.28" enable-background="new 0 0 841.89 595.28" xml:space="preserve">
<g>
	<defs>
		<rect id="SVGID_1_" width="841.89" height="595.28"/>
	</defs>
	<clipPath id="SVGID_2_">
		<use xlink:href="#SVGID_1_"  overflow="visible"/>
	</clipPath>
	
		<linearGradient id="SVGID_3_" gradientUnits="userSpaceOnUse" x1="0" y1="595.2764" x2="1" y2="595.2764" gradientTransform="matrix(48.6632 -40.3599 -40.3599 -48.6632 24167.0156 29366.2109)">
		<stop  offset="0" style="stop-color:#197FC4"/>
		<stop  offset="1" style="stop-color:#920883"/>
	</linearGradient>
	<polygon clip-path="url(#SVGID_2_)" fill="url(#SVGID_3_)" points="150.344,359.02 151.33,358.852 160.781,414.312 
		202.751,379.502 149.997,359.957 150.344,359.02 151.33,358.852 150.344,359.02 150.691,358.082 206.695,378.83 159.391,418.063 
		149.067,357.48 150.691,358.082 	"/>
	<polygon clip-path="url(#SVGID_2_)" fill="none" stroke="#00A1E9" stroke-width="2.251" stroke-miterlimit="10" points="
		73.835,116.031 38.993,141.606 78.564,158.992 	"/>
	
		<linearGradient id="SVGID_4_" gradientUnits="userSpaceOnUse" x1="0" y1="595.2773" x2="1" y2="595.2773" gradientTransform="matrix(51.7113 22.7203 22.7203 -51.7113 -12839.9473 31194.1523)">
		<stop  offset="0" style="stop-color:#197FC4"/>
		<stop  offset="1" style="stop-color:#920883"/>
	</linearGradient>
	<polygon clip-path="url(#SVGID_2_)" fill="url(#SVGID_4_)" points="719.592,402.864 720.184,403.671 679.814,433.304 
		724.076,452.751 718.598,402.974 719.592,402.864 720.184,403.671 719.592,402.864 720.586,402.755 726.443,455.976 
		675.839,433.741 720.396,401.033 720.586,402.755 	"/>
	<polygon clip-path="url(#SVGID_2_)" fill="none" stroke="#920883" stroke-width="1.644" stroke-miterlimit="10" points="
		414.791,493.888 419.576,462.69 390.165,474.145 	"/>
	<polygon clip-path="url(#SVGID_2_)" fill="#2EA7E0" points="662.524,279.115 638.632,258.49 632.717,289.494 	"/>
	<g clip-path="url(#SVGID_2_)">
		<defs>
			<rect id="SVGID_5_" width="841.89" height="595.28"/>
		</defs>
		<clipPath id="SVGID_6_">
			<use xlink:href="#SVGID_5_"  overflow="visible"/>
		</clipPath>
		<path clip-path="url(#SVGID_6_)" fill="none" stroke="#182A88" stroke-width="2.698" stroke-miterlimit="10" d="M502.114,391.295
			c-19.979,10.407-42.689,16.29-66.774,16.29c-63.266,0-117.05-40.589-136.734-97.146"/>
		<path clip-path="url(#SVGID_6_)" fill="none" stroke="#182A88" stroke-width="2.698" stroke-miterlimit="10" d="M310.543,189.475
			c25.166-42.713,71.634-71.375,124.797-71.375c48.61,0,91.624,23.963,117.873,60.721"/>
		<path clip-path="url(#SVGID_6_)" fill="none" stroke="#182A88" stroke-width="3.1" stroke-miterlimit="10" d="M529.664,336.914
			c-22.946,28.395-58.637,45.863-97.9,44.048c-32.753-1.515-61.792-16.16-82.265-38.616"/>
		<path clip-path="url(#SVGID_6_)" fill="none" stroke="#182A88" stroke-width="3.1" stroke-miterlimit="10" d="M385.127,153.779
			c14.612-6.425,30.765-9.992,47.751-9.992c32.168,0,61.348,12.792,82.731,33.566"/>
		
			<circle clip-path="url(#SVGID_6_)" fill="none" stroke="#182A88" stroke-width="2.192" stroke-miterlimit="10" cx="729.036" cy="235.556" r="12.461"/>
	</g>
	<g clip-path="url(#SVGID_2_)">
		<defs>
			<path id="SVGID_7_" d="M222.814,260.476c0,6.883,5.578,12.462,12.459,12.462c6.883,0,12.462-5.579,12.462-12.462
				c0-6.881-5.579-12.46-12.462-12.46C228.392,248.016,222.814,253.595,222.814,260.476"/>
		</defs>
		<clipPath id="SVGID_8_">
			<use xlink:href="#SVGID_7_"  overflow="visible"/>
		</clipPath>
		
			<linearGradient id="SVGID_9_" gradientUnits="userSpaceOnUse" x1="-4.882813e-004" y1="595.2803" x2="0.9995" y2="595.2803" gradientTransform="matrix(24.9216 0 0 -24.9216 222.8125 15095.8242)">
			<stop  offset="0" style="stop-color:#197FC4"/>
			<stop  offset="1" style="stop-color:#920883"/>
		</linearGradient>
		<rect x="222.814" y="248.016" clip-path="url(#SVGID_8_)" fill="url(#SVGID_9_)" width="24.921" height="24.922"/>
	</g>
	<g clip-path="url(#SVGID_2_)">
		<defs>
			<rect id="SVGID_10_" width="841.89" height="595.28"/>
		</defs>
		<clipPath id="SVGID_11_">
			<use xlink:href="#SVGID_10_"  overflow="visible"/>
		</clipPath>
		
			<circle clip-path="url(#SVGID_11_)" fill="none" stroke="#182A88" stroke-width="4" stroke-miterlimit="10" cx="585.311" cy="504.06" r="15.798"/>
		
			<circle clip-path="url(#SVGID_11_)" fill="none" stroke="#182A88" stroke-width="2.704" stroke-miterlimit="10" cx="258.413" cy="97.182" r="10.678"/>
		<path clip-path="url(#SVGID_11_)" fill="#2EA7E0" d="M247.735,511.182c0,9.83-7.969,17.8-17.8,17.8s-17.8-7.97-17.8-17.8
			c0-9.831,7.969-17.801,17.8-17.801S247.735,501.351,247.735,511.182"/>
		<g opacity="0.62" clip-path="url(#SVGID_11_)">
			<g>
				<defs>
					<rect id="SVGID_12_" x="626.612" y="109.199" width="40.78" height="40.781"/>
				</defs>
				<clipPath id="SVGID_13_">
					<use xlink:href="#SVGID_12_"  overflow="visible"/>
				</clipPath>
				<path clip-path="url(#SVGID_13_)" fill="#601986" d="M667.393,129.59c0,11.261-9.129,20.39-20.39,20.39
					c-11.262,0-20.391-9.129-20.391-20.39c0-11.261,9.129-20.391,20.391-20.391C658.264,109.199,667.393,118.329,667.393,129.59"/>
			</g>
		</g>
		<path clip-path="url(#SVGID_11_)" fill="#056FB8" d="M781.228,358.091c0,4.915-3.984,8.9-8.9,8.9c-4.915,0-8.899-3.985-8.899-8.9
			s3.984-8.899,8.899-8.899C777.243,349.191,781.228,353.176,781.228,358.091"/>
	</g>
</g>
</svg>
