<?xml version="1.0" encoding="utf-8"?>
<!-- Generator: Adobe Illustrator 16.0.0, SVG Export Plug-In . SVG Version: 6.00 Build 0)  -->
<!DOCTYPE svg PUBLIC "-//W3C//DTD SVG 1.1//EN" "http://www.w3.org/Graphics/SVG/1.1/DTD/svg11.dtd">
<svg version="1.1" id="Layer_1" xmlns="http://www.w3.org/2000/svg" xmlns:xlink="http://www.w3.org/1999/xlink" x="0px" y="0px"
	 width="500px" height="500px" viewBox="0 0 500 500" enable-background="new 0 0 500 500" xml:space="preserve">
<g id="SvgjsG1157" transform="translate(58.005353736877446,-21.615283775329587) scale(1.4)" xmlns:name="symbol_mainfill">
	<g>
		<path fill="#1A237E" d="M289.332,56.48c-8.267-10.876-22.186-15.662-34.367-13.052c-33.499,8.266-96.145,30.887-171.406,91.793
			c-16.531-4.786-60.906-14.356-95.274,12.18c-5.219,3.917-8.265,9.572-8.7,16.098c-0.435,6.96,2.176,13.921,7.395,19.142
			l50.465,33.497l0,0c0.869,0.871,1.305,2.176,2.175,3.048l29.149,29.143c-3.481,6.094-3.047,13.488,1.739,18.709
			c3.045,3.043,6.961,4.351,10.876,4.351c2.612,0,5.657-0.871,7.831-2.613l30.02,30.02c0,0,0.434,0,0.434,0.436l32.191,48.293
			l1.742,2.173c4.784,4.783,11.313,7.392,17.836,7.392c0.435,0,0.868,0,1.306,0c6.523-0.43,12.181-3.477,16.096-8.26
			c32.628-40.895,16.966-93.103,16.095-95.279v-0.434c60.036-73.958,82.659-135.732,90.491-168.796
			C298.035,74.751,295.425,64.746,289.332,56.48z M53.976,160.454c-5.221,4.786-10.44,9.571-15.662,14.357
			c-0.869,0.869-2.174,2.174-3.044,3.479l-19.142-12.616C28.744,160.019,42.665,159.584,53.976,160.454z M171.872,321.423
			l-11.747-17.4c1.304-0.875,2.61-2.18,3.915-3.484c5.222-5.656,10.442-11.315,15.665-16.535
			C180.139,294.883,178.833,308.805,171.872,321.423z M143.162,278.348c-0.437,0-0.875-0.433-1.742-1.305l-29.146-29.144
			l25.666-25.67c6.09-6.09,6.09-15.661,0-21.316c-6.09-6.09-15.661-6.09-21.316,0l-25.669,25.665l-29.147-29.146
			c-0.436-0.435-0.869-1.304-1.305-1.74c89.619-85.267,164.878-113.546,201.421-122.681c0.437,0,1.743,0.435,2.614,1.74
			c0.871,1.305,1.305,2.176,1.305,2.176C257.14,113.905,228.862,189.166,143.162,278.348z"/>
		<path fill="#1A237E" d="M40.924,253.119c-6.09-6.094-15.659-6.094-21.316,0c-6.091,6.087-6.091,15.658,0,21.315l44.375,44.81
			c3.045,3.047,6.96,4.351,10.876,4.351c3.914,0,7.831-1.304,10.876-4.351c6.09-6.087,6.09-15.658,0-21.315L40.924,253.119z"/>
		<path fill="#1A237E" d="M21.784,289.661c-6.091-6.09-15.662-6.09-21.318,0c-6.09,6.096-6.09,15.665,0,21.316l26.973,26.977
			c3.045,3.041,6.961,4.347,10.875,4.347c3.917,0,7.831-1.306,10.877-4.347c6.09-6.092,6.09-15.663,0-21.32L21.784,289.661z"/>
	</g>
</g>
</svg>
