<svg xmlns="http://www.w3.org/2000/svg" version="1.1" xmlns:xlink="http://www.w3.org/1999/xlink" xmlns:svgjs="http://svgjs.com/svgjs" height="157.92471313476562" width="258"><defs id="SvgjsDefs1155"></defs><g id="SvgjsG1156" rel="mainfill" name="main_text" xmlns:name="main_text" transform="translate(0,-82.50527954101562)" fill="#ffffff"><path d="M0 199.13L16.96 199.13L17.00 201.24Q16.96 201.44 16.71 201.49L15.23 201.58L13.98 201.90L13.32 202.33L13.07 202.58L12.73 203.31L12.53 204.15L12.32 206.06L12.32 232.95L12.64 235.27L13.12 236.39L13.59 236.93L13.94 237.14L15.14 237.54L16.60 237.68L17.00 237.79L17.00 239.91L16.60 239.95L0.11 240L0 239.59L0 237.98Q0.02 237.75 0.25 237.68L1.25 237.64L2.57 237.34L3.52 236.77L3.98 236.14L4.43 235.02L4.64 233.66L4.64 206.63L4.52 205.20L4.23 203.90L3.77 202.79L3.23 202.24L2.57 201.85L1.32 201.54L0.30 201.49Q0.07 201.47 0 201.24L0 199.13ZM38.49 198.78L42.51 199.33L44.65 199.94Q44.99 200.13 45.01 200.54L46.24 208.17L43.47 208.81L43.35 208.33L41.60 204.63L40.81 203.56L39.87 202.65L38.65 202.04L37.17 201.69L35.90 201.60L34.62 201.72L33.19 202.13L32.03 202.81L31.05 203.63L30.26 204.72L29.78 206.01L29.64 207.26L29.80 208.49L30.01 209.20L30.33 209.81L31.08 210.88L34.19 213.31L40.51 217.04L44.53 220.38L46.13 222.45L46.72 223.68L47.29 225.88L47.44 228.45L47.29 230.18L46.69 232.32L46.08 233.54L44.47 235.59L41.28 237.93L38.06 239.27L35.83 239.80L32.35 240L29.01 239.64L24.05 238.20Q23.76 238.02 23.64 237.66L21.57 228.86L21.73 228.86L24.60 228.07L25.92 231.36L27.23 233.70L28.42 235.27L29.46 236.07L30.69 236.66L32.17 237.02L33.87 237.14L35.51 236.93L36.94 236.50L38.60 235.45L39.56 234.54L39.97 234.02L40.56 232.84L40.92 231.32L40.83 229.61L40.44 228.18L39.71 227.02L38.85 226.11L36.78 224.52L28.85 219.59L26.28 217.56L25.35 216.65L24.32 214.93L23.80 213.58L23.42 210.31L23.53 208.61L24.07 206.42L25.01 204.56L26.67 202.56L28.83 201.06L31.96 199.63L34.15 199.06L38.49 198.78ZM75.43 198.67L80.52 199.56L84.29 201.15L87.09 203.01L89.52 205.24L91.89 208.24L93.46 211.31L94.68 216.11L94.80 220.56L93.98 225.79L92.25 230.04L90.34 232.82L87.25 235.73L83.09 238.25L78.59 239.75L73.27 240.43L68.20 240.14L67.06 239.95L63.99 239.02L60.11 236.91L56.54 233.82L53.24 229.09L51.70 224.61L51.49 223.47L51.22 219.11L51.67 214.88L52.76 211.29L54.95 207.47L57.86 204.42L61.40 201.92L65.49 200.01L70.36 198.88L75.43 198.67M73.22 201.83L71.36 201.94L68.93 202.49L66.27 203.74L65.13 204.58L63.27 206.65L60.58 211.86L59.61 215.79L59.45 221.38L60.22 225.54L61.88 229.77L63.79 232.82L65.65 234.84L66.79 235.68L68.04 236.39L71.09 237.27L74.82 237.34L77.97 236.61L80.50 235.20L82.43 233.23L84.66 229.47L86.16 225.11L86.73 218.95L86.11 214.49L85.48 212.17L84.29 209.42L81.98 205.81L80.57 204.31L78.82 203.08L77.45 202.49L75.91 202.08L73.22 201.83ZM97.05 199.24L113.53 199.24L113.48 201.51L111.96 201.51L110.69 201.74L110.01 202.10L109.53 202.63L109.32 202.94L108.96 204.13L108.76 205.95L108.80 225.25L109.26 228.88L109.69 230.50L110.73 232.48L111.60 233.66L112.69 234.63L113.94 235.43L116.12 236.29L117.76 236.66L121.19 236.57L124.10 235.93L125.49 235.27L126.69 234.43L127.67 233.38L128.60 231.75L129.56 229.18L130.60 223.06L130.74 207.40L130.53 205.06L130.13 203.44L129.76 202.79L129.49 202.51L128.56 201.94L127.78 201.69L125.96 201.47L125.96 199.40L126.06 199.24L138.92 199.24Q139.15 199.28 139.17 199.51L139.17 201.06L139.08 201.51L138.08 201.51L137.20 201.63L136.47 201.90L135.85 202.31L135.42 202.88L135.10 203.60L134.90 204.40L134.65 206.72L134.29 227.22L133.56 230.63L132.31 233.41L130.69 235.39L128.67 236.93L123.62 239.02L117.49 240L114.94 239.95L111.92 239.43L108.19 238.07L105.94 236.73L104.12 235.00L102.91 233.13L102.30 231.68L101.66 229.29L101.37 227.04L101.30 206.72L101.12 204.81L100.84 203.60L100.57 202.83L100.12 202.26L99.48 201.90L97.87 201.51L97.09 201.51L97.05 201.26L97.05 199.24ZM166.86 219.36L172.93 228.47Q173.41 229.22 174.02 230.24Q174.64 231.25 175.32 232.29Q176.66 234.29 178.32 235.99Q179.98 237.68 182.00 237.68L182.00 240L176.36 240Q173.73 240 172.28 239.39Q170.84 238.77 169.68 237.29Q169.20 236.70 168.70 235.93Q168.20 235.16 167.59 234.18L159.75 221.56L156.02 221.56L156.02 228.97L156.02 231.68Q156.02 234.54 156.69 236.11Q157.36 237.68 160.68 237.68L160.68 240Q159.63 239.93 158.62 239.87Q157.61 239.82 156.56 239.75Q155.54 239.75 154.53 239.73Q153.52 239.70 152.47 239.70Q150.81 239.70 149.15 239.76Q147.49 239.82 145.86 239.89Q145.29 239.93 144.74 239.97Q144.20 240 143.65 240L143.65 237.68Q147.02 237.68 147.69 236.11Q148.36 234.54 148.36 231.68L148.31 228.97L148.31 210.24L148.36 207.47Q148.36 204.47 147.63 202.94Q146.90 201.42 143.65 201.42L143.65 199.22Q145.79 199.33 147.90 199.39Q150.02 199.44 152.11 199.44Q153.34 199.44 154.59 199.39Q155.84 199.33 157.06 199.26Q158.29 199.26 159.54 199.21Q160.79 199.15 162.02 199.15Q162.09 199.15 162.18 199.15Q162.27 199.15 162.38 199.15Q166.86 199.22 170.57 201.30Q174.27 203.38 174.27 208.65Q174.27 212.49 172.32 215.22Q170.36 217.95 166.86 219.36L166.86 219.36M156.02 218.74Q160.50 218.74 163.46 216.72Q166.43 214.70 166.43 209.86Q166.43 205.65 164.08 203.93Q161.72 202.22 157.86 202.22Q157.43 202.22 156.97 202.24Q156.52 202.26 156.02 202.40L156.02 218.74L156.02 218.74ZM203.21 199.01L215.92 201.49L216.69 201.79L217.94 211.67L217.58 211.83L215.81 212.13Q215.56 211.90 215.44 211.49L214.17 208.67L212.24 206.04L211.19 205.04L209.76 203.99L209.12 203.63L207.26 202.90L203.78 202.33L201.37 202.33L198.73 202.79L195.55 204.15L193.85 205.47L192.60 206.79L190.64 209.88L189.55 212.36L188.55 216.93L188.46 217.86L188.78 223.11L189.71 226.72L191.30 230.20L193.12 232.98L194.87 234.75L196.73 235.93L199.73 236.98L200.62 237.14L204.94 237.14L206.99 236.70L209.46 235.61L210.40 235.02L212.96 232.54L214.56 230.09L216.01 226.43L216.22 226.20L218.33 226.63L218.38 226.95L216.60 236.91L211.87 238.80L206.55 240.02L200.33 240.43L197.96 240.25L195.01 239.66L191.66 238.43L190.66 237.91L186.87 235.14L185.82 234.13L183.98 231.93L181.80 228.00L180.62 223.59L180.37 219.79L180.80 215.70L182.30 211.08L183.78 208.51L186.05 205.72L190.30 202.33L194.76 200.22L198.89 199.26L203.21 199.01ZM245.11 199.44L256.20 201.90L256.41 202.35L257.57 211.67L257.11 211.88L255.57 212.15L255.20 211.88L254.34 209.70L251.82 206.01L249.43 204.10L246.79 203.01L244.15 202.58L240.04 202.69L238.04 203.17L236.72 203.70L235.13 204.63L233.79 205.70L231.58 208.45L229.90 211.72L228.83 215.54L228.58 219.95L229.26 220.11L230.47 220.13L230.99 220.06L241.47 215.72L242.00 215.63L243.75 215.74L244.70 216.04L245.54 216.43L246.59 217.22L247.63 218.65L247.91 219.61L248.02 220.74L247.81 221.77L247.43 222.61L246.22 223.88L245.11 224.66L244.91 224.29L245.11 223.97L246.16 223.13L246.66 222.40L246.79 221.93L246.70 221.40L246.34 221.13L245.91 220.97L244.95 220.86L244.36 221.02L236.88 224.04L234.93 224.56L234.38 224.66L232.63 224.66L231.06 224.34L229.06 223.45L229.04 223.56L229.99 226.95L231.58 230.27L233.33 232.82L234.58 234.11L236.77 235.57L238.99 236.41L241.11 236.77L243.56 236.82L245.75 236.54L247.66 235.98L249.70 234.93L251.09 233.86L253.36 231.22L255.25 227.52L255.73 225.93L257.59 226.29L258.00 226.45L256.29 236.45L250.93 238.52L243.59 239.84L238.88 239.89L234.22 238.98L231.58 237.89L227.51 235.18L224.51 232.02L223.24 230.20L222.01 227.72L220.85 223.34L220.65 219.18L221.01 215.88L222.33 211.61L223.83 208.81L225.45 206.70L228.67 203.74L232.06 201.58L236.61 199.94L240.88 199.35L245.11 199.44Z" fill="#ffffff" style="fill: rgb(255, 255, 255);"></path></g><g id="SvgjsG1157" rel="mainfill" name="symbol" xmlns:name="symbol_mainfill" transform="translate(58.005353736877446,-21.615283775329587) scale(1.4)" fill="#ffffff"><g fill="#ffffff"><path fill="#ffffff" d="M85.5,18.6c-1.9-2.5-5.1-3.6-7.9-3c-7.7,1.9-22.1,7.1-39.4,21.1c-3.8-1.1-14-3.3-21.9,2.8   c-1.2,0.9-1.9,2.2-2,3.7c-0.1,1.6,0.5,3.2,1.7,4.4l11.6,7.7c0,0,0,0,0,0c0.2,0.2,0.3,0.5,0.5,0.7l6.7,6.7c-0.8,1.4-0.7,3.1,0.4,4.3   c0.7,0.7,1.6,1,2.5,1c0.6,0,1.3-0.2,1.8-0.6l6.9,6.9c0,0,0.1,0,0.1,0.1l7.4,11.1l0.4,0.5c1.1,1.1,2.6,1.7,4.1,1.7   c0.1,0,0.2,0,0.3,0c1.5-0.1,2.8-0.8,3.7-1.9c7.5-9.4,3.9-21.4,3.7-21.9c0,0,0-0.1,0-0.1C79.9,46.8,85.1,32.6,86.9,25   C87.5,22.8,86.9,20.5,85.5,18.6z M31.4,42.5c-1.2,1.1-2.4,2.2-3.6,3.3c-0.2,0.2-0.5,0.5-0.7,0.8l-4.4-2.9   C25.6,42.4,28.8,42.3,31.4,42.5z M58.5,79.5l-2.7-4c0.3-0.2,0.6-0.5,0.9-0.8c1.2-1.3,2.4-2.6,3.6-3.8   C60.4,73.4,60.1,76.6,58.5,79.5z M51.9,69.6c-0.1,0-0.2-0.1-0.4-0.3l-6.7-6.7l5.9-5.9c1.4-1.4,1.4-3.6,0-4.9   c-1.4-1.4-3.6-1.4-4.9,0l-5.9,5.9L33.2,51c-0.1-0.1-0.2-0.3-0.3-0.4C53.5,31,70.8,24.5,79.2,22.4c0.1,0,0.4,0.1,0.6,0.4   c0.2,0.3,0.3,0.5,0.3,0.5C78.1,31.8,71.6,49.1,51.9,69.6z" style="fill: rgb(255, 255, 255);"></path><path fill="#ffffff" d="M28.4,63.8c-1.4-1.4-3.6-1.4-4.9,0c-1.4,1.4-1.4,3.6,0,4.9L33.7,79c0.7,0.7,1.6,1,2.5,1s1.8-0.3,2.5-1   c1.4-1.4,1.4-3.6,0-4.9L28.4,63.8z" style="fill: rgb(255, 255, 255);"></path><path fill="#ffffff" d="M24,72.2c-1.4-1.4-3.6-1.4-4.9,0c-1.4,1.4-1.4,3.6,0,4.9l6.2,6.2c0.7,0.7,1.6,1,2.5,1s1.8-0.3,2.5-1   c1.4-1.4,1.4-3.6,0-4.9L24,72.2z" style="fill: rgb(255, 255, 255);"></path></g></g></svg>
